<?xml version="1.0" encoding="utf-8"?>
<!-- Generator: Adobe Illustrator 16.0.1, SVG Export Plug-In . SVG Version: 6.00 Build 0)  -->
<!DOCTYPE svg PUBLIC "-//W3C//DTD SVG 1.1//EN" "http://www.w3.org/Graphics/SVG/1.1/DTD/svg11.dtd">
<svg version="1.1" id="Ebene_1" xmlns:svg="http://www.w3.org/2000/svg"
	 xmlns="http://www.w3.org/2000/svg" xmlns:xlink="http://www.w3.org/1999/xlink" x="0px" y="0px" width="240px" height="240px"
	 viewBox="0 0 240 240" enable-background="new 0 0 240 240" xml:space="preserve">
<path id="path2892" fill="#537078" d="M185.04,82.953c6.48,7.846,6.979,16.695,6.816,26.451c-0.554,10.35-4.177,20.328-4.194,30.622
	c-0.026,15.977,0.203,30.279-3.088,44.896c-5.337,16.214-16.776,30.397-30.295,40.459c-11.566,8.608-25.045,14.447-39.084,14.566
	c-10.195,0.537-20.846-3.155-29.662-8.008c-8.247-4.539-11.037-10.751-17.185-16.895c-7.492-7.484-17.51-11.456-24.867-19.341
	c-8.073-10.475-11.245-23.764-10.323-36.66c1.034-14.463,5.852-27.619,14.936-39.406c9.277-12.037,17.202-19.686,32.049-25.291
	c17.481-6.601,32.956-18.578,50.677-26.417c6.184-2.61,12.447-2.968,18.991-2.111c11.092,3.919,14.423,7.796,20.638-7.244
	c1.459-5.505,1.432-10.951-1.35-15.984c-1.104-4.777-4.575-9.38-8.088-12.939c-1.954-1.267,10.091-9.099,11.09-3.144
	c0.82,4.705,2.259,6.463,2.636,9.4c1.612,5.526,3.609,10.061,2.909,16.772c-0.702,6.711-1.557,16.828-0.044,22.922
	C178.377,78.723,182.468,80.207,185.04,82.953L185.04,82.953L185.04,82.953z"/>
</svg>
