<?xml version="1.0" encoding="utf-8"?>
<!DOCTYPE svg PUBLIC "-//W3C//DTD SVG 1.1//EN" "http://www.w3.org/Graphics/SVG/1.1/DTD/svg11.dtd">
<svg version="1.1" id="Ebene_1" xmlns="http://www.w3.org/2000/svg" xmlns:xlink="http://www.w3.org/1999/xlink" x="0px" y="0px"
	 width="240px" height="240px" viewBox="0 0 240 240" enable-background="new 0 0 240 240" xml:space="preserve">
<path fill="#c4473a" d="M187.692,68.368c-9.02-5.815-19.49-5.404-31.109-3.79c17.952-9.44,22.471-22.295,23.155-31.191
	c0.214-2.752-0.841-5.445-2.867-7.314c-2.02-1.876-4.786-2.718-7.511-2.296c-24.712,3.823-34.703,21.26-38.544,32.009
	c-1.801-5.541-4.43-11.107-8.207-16.228c-6.794-9.203-16.087-15.561-27.711-18.966c-2.499-0.73-5.18-0.34-7.354,1.072
	c-2.181,1.412-3.646,3.696-4.001,6.267l-0.107,0.76c-0.61,4.378,2.069,8.521,6.314,9.77c7.634,2.253,13.5,6.23,17.819,12.057
	c3.758,5.067,5.903,10.982,7.081,16.657c-16.336-3.458-28.153-13.671-52.318-2.253c-24.426,11.534-43.243,41.729-29.113,87.574
	c11.368,36.954,38.412,62.155,52.667,70.493H159.7c16.441-9.842,43.205-32.296,50.236-72.818
	C217.721,105.278,207.399,81.07,187.692,68.368z M80.513,95.651c-2.231,1.219-20.955,12.313-14.124,36.559
	c1.396,4.949-1.483,10.085-6.432,11.483c-0.848,0.228-1.702,0.338-2.531,0.338c-4.07,0-7.804-2.681-8.951-6.784
	c-8.869-31.485,11.369-51.717,23.305-58.003c4.524-2.399,10.159-0.651,12.564,3.881C86.739,87.643,85.02,93.239,80.513,95.651z"/>
</svg>
